<svg width="16" height="16" viewBox="0 0 16 16" fill="none" xmlns="http://www.w3.org/2000/svg">
<path d="M3.33333 1.99996H12.6667V6.33329H14V1.99996C14 1.26358 13.403 0.666626 12.6667 0.666626H3.33333C2.59695 0.666626 2 1.26358 2 1.99996V14C2 14.7363 2.59695 15.3333 3.33333 15.3333H6.66667V14H3.33333V1.99996Z" fill="#2962FF"/>
<path d="M4.66667 4.99996C4.66667 4.63177 4.96514 4.33329 5.33333 4.33329H10.6667C11.0349 4.33329 11.3333 4.63177 11.3333 4.99996C11.3333 5.36815 11.0349 5.66663 10.6667 5.66663H5.33333C4.96514 5.66663 4.66667 5.36815 4.66667 4.99996Z" fill="#2962FF"/>
<path d="M5.33333 7.33329C4.96514 7.33329 4.66667 7.63177 4.66667 7.99996C4.66667 8.36815 4.96514 8.66663 5.33333 8.66663H7C7.36819 8.66663 7.66667 8.36815 7.66667 7.99996C7.66667 7.63177 7.36819 7.33329 7 7.33329H5.33333Z" fill="#2962FF"/>
<path d="M12 10.3333C12 9.9651 11.7015 9.66663 11.3333 9.66663C10.9651 9.66663 10.6667 9.9651 10.6667 10.3333V12C10.6667 12.3681 10.9651 12.6666 11.3333 12.6666H13C13.3682 12.6666 13.6667 12.3681 13.6667 12C13.6667 11.6318 13.3682 11.3333 13 11.3333H12V10.3333Z" fill="#2962FF"/>
<path d="M11.6667 16C14.0599 16 16 14.0599 16 11.6666C16 9.27339 14.0599 7.33329 11.6667 7.33329C9.27343 7.33329 7.33333 9.27339 7.33333 11.6666C7.33333 14.0599 9.27343 16 11.6667 16ZM11.6667 14.6666C10.0098 14.6666 8.66667 13.3235 8.66667 11.6666C8.66667 10.0098 10.0098 8.66663 11.6667 8.66663C13.3235 8.66663 14.6667 10.0098 14.6667 11.6666C14.6667 13.3235 13.3235 14.6666 11.6667 14.6666Z" fill="#2962FF"/>
</svg>
